<?xml version="1.0" standalone="no"?><!DOCTYPE svg PUBLIC "-//W3C//DTD SVG 1.1//EN" "http://www.w3.org/Graphics/SVG/1.1/DTD/svg11.dtd"><svg t="1648277314252" class="icon" viewBox="0 0 1024 1024" version="1.1" xmlns="http://www.w3.org/2000/svg" p-id="2224" xmlns:xlink="http://www.w3.org/1999/xlink" width="32" height="32"><defs><style type="text/css"></style></defs><path d="M783.536 240.464a32 32 0 1 0-45.248 45.248c124.768 124.768 124.768 327.776 0 452.544-124.768 124.768-327.776 124.768-452.544 0s-124.768-327.776 0-452.544a32 32 0 1 0-45.248-45.248c-149.968 149.968-149.968 393.104 0 543.056s393.104 149.968 543.056 0 149.936-393.088-0.016-543.056z" p-id="2225" fill="#515151"></path><path d="M512 512a32 32 0 0 1-32-32V160a32 32 0 0 1 64 0v320a32 32 0 0 1-32 32z" p-id="2226" fill="#515151"></path></svg>